# xmcd CD database file
#
# Track frame offsets:
#	150
#	13233
#	27533
#	44605
#	55612
#	69984
#	86007
#	106893
#	132246
#	145898
#	155537
#	169459
#	184600
#	203247
#	215458
#	232643
#	243427
#	262679
#	277933
#	295765
#	311769
#
# Disc length: 4304 seconds
#
# Revision: 0
# Processed by: cddbd v1.5.2PL0 Copyright (c) Steve Scherf et al.
# Submitted via: CDex 1.70beta2
#
DISCID=2910ce15
DTITLE=Die Enttäuschung - Vier Halbe
DYEAR=2012
DGENRE=Jazz
TTITLE0=Die Übergebundenen
TTITLE1=Verzähl
TTITLE2=Aqua-Satin-Flame
TTITLE3=Das Jan Vom Stück
TTITLE4=Falsches Publikum
TTITLE5=Vermöbelt
TTITLE6=jitterbug Five
TTITLE7=Gekannt
TTITLE8=Trompete Für Fortgeschritte
TTITLE9=Wie Axel
TTITLE10=Eine Halbe
TTITLE11=Hereich
TTITLE12=Hello My Loneliness
TTITLE13=Vier Halbe
TTITLE14=Children's Blues
TTITLE15=Möbelrücken
TTITLE16=The Easy Going
TTITLE17=Verkannt
TTITLE18=Trompete Für Anfänger
TTITLE19=Trompete Für Profis
TTITLE20=Schlagzeug Für Anfänger
EXTD=YEAR: 2012
EXTT0=
EXTT1=
EXTT2=
EXTT3=
EXTT4=
EXTT5=
EXTT6=
EXTT7=
EXTT8=
EXTT9=
EXTT10=
EXTT11=
EXTT12=
EXTT13=
EXTT14=
EXTT15=
EXTT16=
EXTT17=
EXTT18=
EXTT19=
EXTT20=
PLAYORDER=
